<mxfile host="Electron" agent="Mozilla/5.0 (Windows NT 10.0; Win64; x64) AppleWebKit/537.36 (KHTML, like Gecko) draw.io/24.7.5 Chrome/126.0.6478.183 Electron/31.3.0 Safari/537.36" version="24.7.5">
  <diagram name="Trang-1" id="rMzL3UFabWsADVxy4FzP">
    <mxGraphModel dx="1050" dy="629" grid="1" gridSize="10" guides="1" tooltips="1" connect="1" arrows="1" fold="1" page="1" pageScale="1" pageWidth="827" pageHeight="1169" math="0" shadow="0">
      <root>
        <mxCell id="0" />
        <mxCell id="1" parent="0" />
        <mxCell id="mrZXV3vkeE_eTy5VasnF-18" style="edgeStyle=orthogonalEdgeStyle;rounded=0;orthogonalLoop=1;jettySize=auto;html=1;entryX=0.5;entryY=0;entryDx=0;entryDy=0;" parent="1" source="uBKHjGsXj6OErML4Wmsb-3" target="uBKHjGsXj6OErML4Wmsb-5" edge="1">
          <mxGeometry relative="1" as="geometry" />
        </mxCell>
        <mxCell id="uBKHjGsXj6OErML4Wmsb-3" value="Начало" style="strokeWidth=2;html=1;shape=mxgraph.flowchart.terminator;whiteSpace=wrap;fontSize=14;" parent="1" vertex="1">
          <mxGeometry x="55" y="30" width="150" height="60" as="geometry" />
        </mxCell>
        <mxCell id="uBKHjGsXj6OErML4Wmsb-4" value="Конец" style="strokeWidth=2;html=1;shape=mxgraph.flowchart.terminator;whiteSpace=wrap;fontSize=14;" parent="1" vertex="1">
          <mxGeometry x="382.5" y="760" width="136" height="60" as="geometry" />
        </mxCell>
        <mxCell id="mrZXV3vkeE_eTy5VasnF-19" style="edgeStyle=orthogonalEdgeStyle;rounded=0;orthogonalLoop=1;jettySize=auto;html=1;entryX=0.5;entryY=0;entryDx=0;entryDy=0;" parent="1" source="uBKHjGsXj6OErML4Wmsb-5" target="mrZXV3vkeE_eTy5VasnF-1" edge="1">
          <mxGeometry relative="1" as="geometry" />
        </mxCell>
        <mxCell id="uBKHjGsXj6OErML4Wmsb-5" value="Инициализировать интерфейс" style="rounded=0;whiteSpace=wrap;html=1;fontSize=14;" parent="1" vertex="1">
          <mxGeometry x="50" y="120" width="160" height="60" as="geometry" />
        </mxCell>
        <mxCell id="mrZXV3vkeE_eTy5VasnF-47" style="edgeStyle=orthogonalEdgeStyle;rounded=0;orthogonalLoop=1;jettySize=auto;html=1;" parent="1" source="uBKHjGsXj6OErML4Wmsb-9" edge="1">
          <mxGeometry relative="1" as="geometry">
            <mxPoint x="129.49" y="1230" as="targetPoint" />
            <Array as="points">
              <mxPoint x="240.49" y="1020" />
              <mxPoint x="240.49" y="1230" />
            </Array>
          </mxGeometry>
        </mxCell>
        <mxCell id="uBKHjGsXj6OErML4Wmsb-9" value="&lt;font style=&quot;font-size: 14px;&quot;&gt;Поезд будет планировать в этой пути&lt;/font&gt;" style="rounded=0;whiteSpace=wrap;html=1;fontSize=14;" parent="1" vertex="1">
          <mxGeometry x="49.49" y="990" width="160" height="60" as="geometry" />
        </mxCell>
        <mxCell id="uBKHjGsXj6OErML4Wmsb-14" value="Поезд не&lt;div&gt;&amp;nbsp;планирован и&amp;nbsp;&lt;span style=&quot;background-color: initial;&quot;&gt;через&amp;nbsp;&lt;/span&gt;&lt;/div&gt;&lt;div&gt;3 минут&amp;nbsp;&lt;span style=&quot;background-color: initial;&quot;&gt;он&amp;nbsp;&lt;/span&gt;&lt;/div&gt;&lt;div&gt;&lt;span style=&quot;background-color: initial;&quot;&gt;приедет&lt;/span&gt;&lt;/div&gt;" style="rhombus;whiteSpace=wrap;html=1;" parent="1" vertex="1">
          <mxGeometry x="49.49" y="480" width="160" height="80" as="geometry" />
        </mxCell>
        <mxCell id="mrZXV3vkeE_eTy5VasnF-1" value="Сортировка время&amp;nbsp; отправления поездов&amp;nbsp;" style="rounded=0;whiteSpace=wrap;html=1;fontSize=14;" parent="1" vertex="1">
          <mxGeometry x="52" y="210" width="156" height="60" as="geometry" />
        </mxCell>
        <mxCell id="mrZXV3vkeE_eTy5VasnF-21" style="edgeStyle=orthogonalEdgeStyle;rounded=0;orthogonalLoop=1;jettySize=auto;html=1;entryX=0.5;entryY=0;entryDx=0;entryDy=0;" parent="1" source="mrZXV3vkeE_eTy5VasnF-2" target="uBKHjGsXj6OErML4Wmsb-14" edge="1">
          <mxGeometry relative="1" as="geometry" />
        </mxCell>
        <mxCell id="mrZXV3vkeE_eTy5VasnF-2" value="Цикл по массиве поездов" style="strokeWidth=2;html=1;shape=mxgraph.flowchart.loop_limit;whiteSpace=wrap;" parent="1" vertex="1">
          <mxGeometry x="51.49" y="390" width="156" height="60" as="geometry" />
        </mxCell>
        <mxCell id="mrZXV3vkeE_eTy5VasnF-32" style="edgeStyle=orthogonalEdgeStyle;rounded=0;orthogonalLoop=1;jettySize=auto;html=1;entryX=0.5;entryY=0;entryDx=0;entryDy=0;" parent="1" source="mrZXV3vkeE_eTy5VasnF-5" target="uBKHjGsXj6OErML4Wmsb-9" edge="1">
          <mxGeometry relative="1" as="geometry" />
        </mxCell>
        <mxCell id="mrZXV3vkeE_eTy5VasnF-5" value="Путь пустая&amp;nbsp;&lt;div&gt;или&amp;nbsp;&lt;span style=&quot;background-color: initial;&quot;&gt;последний поезд&amp;nbsp;&lt;/span&gt;&lt;/div&gt;&lt;div&gt;&lt;span style=&quot;background-color: initial;&quot;&gt;отошел&amp;nbsp;&lt;/span&gt;&lt;span style=&quot;background-color: initial;&quot;&gt;10&amp;nbsp;&lt;/span&gt;&lt;span style=&quot;background-color: initial;&quot;&gt;минут&amp;nbsp;&lt;/span&gt;&lt;/div&gt;&lt;div&gt;&lt;span style=&quot;background-color: initial;&quot;&gt;назад.&lt;/span&gt;&lt;/div&gt;" style="rhombus;whiteSpace=wrap;html=1;" parent="1" vertex="1">
          <mxGeometry x="49.49" y="880" width="160" height="90" as="geometry" />
        </mxCell>
        <mxCell id="mrZXV3vkeE_eTy5VasnF-6" value="Цикл по массиве платформов" style="strokeWidth=2;html=1;shape=mxgraph.flowchart.loop_limit;whiteSpace=wrap;" parent="1" vertex="1">
          <mxGeometry x="49.49" y="590" width="160" height="60" as="geometry" />
        </mxCell>
        <mxCell id="mrZXV3vkeE_eTy5VasnF-25" style="edgeStyle=orthogonalEdgeStyle;rounded=0;orthogonalLoop=1;jettySize=auto;html=1;entryX=0.5;entryY=0;entryDx=0;entryDy=0;" parent="1" source="mrZXV3vkeE_eTy5VasnF-7" target="mrZXV3vkeE_eTy5VasnF-14" edge="1">
          <mxGeometry relative="1" as="geometry" />
        </mxCell>
        <mxCell id="mrZXV3vkeE_eTy5VasnF-7" value="Цикл по массиве пути" style="strokeWidth=2;html=1;shape=mxgraph.flowchart.loop_limit;whiteSpace=wrap;" parent="1" vertex="1">
          <mxGeometry x="49.49" y="680" width="160" height="60" as="geometry" />
        </mxCell>
        <mxCell id="mrZXV3vkeE_eTy5VasnF-8" value="Цикл по массиве поездов" style="strokeWidth=2;html=1;shape=mxgraph.flowchart.loop_limit;whiteSpace=wrap;direction=west;" parent="1" vertex="1">
          <mxGeometry x="371" y="585" width="159" height="60" as="geometry" />
        </mxCell>
        <mxCell id="mrZXV3vkeE_eTy5VasnF-10" value="Цикл по массиве пути" style="strokeWidth=2;html=1;shape=mxgraph.flowchart.loop_limit;whiteSpace=wrap;direction=west;" parent="1" vertex="1">
          <mxGeometry x="49.49" y="1080" width="160" height="60" as="geometry" />
        </mxCell>
        <mxCell id="mrZXV3vkeE_eTy5VasnF-13" value="Время отправления поездов = Время отправления первого поезда со станции + 10" style="rounded=0;whiteSpace=wrap;html=1;fontSize=14;" parent="1" vertex="1">
          <mxGeometry x="371" y="470" width="159" height="70" as="geometry" />
        </mxCell>
        <mxCell id="mrZXV3vkeE_eTy5VasnF-26" style="edgeStyle=orthogonalEdgeStyle;rounded=0;orthogonalLoop=1;jettySize=auto;html=1;entryX=0.5;entryY=0;entryDx=0;entryDy=0;" parent="1" source="mrZXV3vkeE_eTy5VasnF-14" target="mrZXV3vkeE_eTy5VasnF-5" edge="1">
          <mxGeometry relative="1" as="geometry" />
        </mxCell>
        <mxCell id="mrZXV3vkeE_eTy5VasnF-46" style="edgeStyle=orthogonalEdgeStyle;rounded=0;orthogonalLoop=1;jettySize=auto;html=1;entryX=0.5;entryY=1;entryDx=0;entryDy=0;entryPerimeter=0;" parent="1" source="mrZXV3vkeE_eTy5VasnF-14" target="mrZXV3vkeE_eTy5VasnF-10" edge="1">
          <mxGeometry relative="1" as="geometry">
            <mxPoint x="19.49" y="1080" as="targetPoint" />
            <Array as="points">
              <mxPoint x="20.49" y="815" />
              <mxPoint x="20.49" y="1070" />
              <mxPoint x="129.49" y="1070" />
            </Array>
          </mxGeometry>
        </mxCell>
        <mxCell id="mrZXV3vkeE_eTy5VasnF-14" value="Правильное ли направление поезда&amp;nbsp;&lt;div&gt;в этой пути&lt;/div&gt;" style="rhombus;whiteSpace=wrap;html=1;" parent="1" vertex="1">
          <mxGeometry x="49.49" y="770" width="160" height="90" as="geometry" />
        </mxCell>
        <mxCell id="mrZXV3vkeE_eTy5VasnF-38" style="edgeStyle=orthogonalEdgeStyle;rounded=0;orthogonalLoop=1;jettySize=auto;html=1;entryX=0.5;entryY=0;entryDx=0;entryDy=0;" parent="1" source="mrZXV3vkeE_eTy5VasnF-15" target="mrZXV3vkeE_eTy5VasnF-37" edge="1">
          <mxGeometry relative="1" as="geometry" />
        </mxCell>
        <mxCell id="mrZXV3vkeE_eTy5VasnF-15" value="Цикл по массиве платформов" style="strokeWidth=2;html=1;shape=mxgraph.flowchart.loop_limit;whiteSpace=wrap;direction=west;" parent="1" vertex="1">
          <mxGeometry x="49.49" y="1160" width="160" height="60" as="geometry" />
        </mxCell>
        <mxCell id="mrZXV3vkeE_eTy5VasnF-41" style="edgeStyle=orthogonalEdgeStyle;rounded=0;orthogonalLoop=1;jettySize=auto;html=1;entryX=0.5;entryY=0;entryDx=0;entryDy=0;" parent="1" source="mrZXV3vkeE_eTy5VasnF-17" target="mrZXV3vkeE_eTy5VasnF-13" edge="1">
          <mxGeometry relative="1" as="geometry" />
        </mxCell>
        <mxCell id="mrZXV3vkeE_eTy5VasnF-17" value="Поезд не&amp;nbsp;&lt;div&gt;запланирован и все пути заняты&lt;br&gt;&lt;/div&gt;" style="rhombus;whiteSpace=wrap;html=1;" parent="1" vertex="1">
          <mxGeometry x="371" y="370" width="160" height="80" as="geometry" />
        </mxCell>
        <mxCell id="mrZXV3vkeE_eTy5VasnF-22" style="edgeStyle=orthogonalEdgeStyle;rounded=0;orthogonalLoop=1;jettySize=auto;html=1;entryX=0.5;entryY=0;entryDx=0;entryDy=0;entryPerimeter=0;" parent="1" source="uBKHjGsXj6OErML4Wmsb-14" target="mrZXV3vkeE_eTy5VasnF-6" edge="1">
          <mxGeometry relative="1" as="geometry" />
        </mxCell>
        <mxCell id="mrZXV3vkeE_eTy5VasnF-23" style="edgeStyle=orthogonalEdgeStyle;rounded=0;orthogonalLoop=1;jettySize=auto;html=1;entryX=0.5;entryY=0;entryDx=0;entryDy=0;entryPerimeter=0;" parent="1" source="mrZXV3vkeE_eTy5VasnF-6" target="mrZXV3vkeE_eTy5VasnF-7" edge="1">
          <mxGeometry relative="1" as="geometry" />
        </mxCell>
        <mxCell id="mrZXV3vkeE_eTy5VasnF-28" style="edgeStyle=orthogonalEdgeStyle;rounded=0;orthogonalLoop=1;jettySize=auto;html=1;entryX=0.5;entryY=1;entryDx=0;entryDy=0;entryPerimeter=0;" parent="1" source="mrZXV3vkeE_eTy5VasnF-10" target="mrZXV3vkeE_eTy5VasnF-15" edge="1">
          <mxGeometry relative="1" as="geometry" />
        </mxCell>
        <mxCell id="mrZXV3vkeE_eTy5VasnF-36" value="" style="endArrow=none;html=1;rounded=0;entryX=0;entryY=0.5;entryDx=0;entryDy=0;" parent="1" target="mrZXV3vkeE_eTy5VasnF-5" edge="1">
          <mxGeometry width="50" height="50" relative="1" as="geometry">
            <mxPoint x="19.49" y="925" as="sourcePoint" />
            <mxPoint x="169.49" y="1090" as="targetPoint" />
          </mxGeometry>
        </mxCell>
        <mxCell id="mrZXV3vkeE_eTy5VasnF-37" value="A" style="ellipse;whiteSpace=wrap;html=1;aspect=fixed;" parent="1" vertex="1">
          <mxGeometry x="104.49" y="1240" width="50" height="50" as="geometry" />
        </mxCell>
        <mxCell id="mrZXV3vkeE_eTy5VasnF-40" style="edgeStyle=orthogonalEdgeStyle;rounded=0;orthogonalLoop=1;jettySize=auto;html=1;entryX=0.5;entryY=0;entryDx=0;entryDy=0;" parent="1" source="mrZXV3vkeE_eTy5VasnF-39" target="mrZXV3vkeE_eTy5VasnF-17" edge="1">
          <mxGeometry relative="1" as="geometry" />
        </mxCell>
        <mxCell id="mrZXV3vkeE_eTy5VasnF-39" value="A" style="ellipse;whiteSpace=wrap;html=1;aspect=fixed;" parent="1" vertex="1">
          <mxGeometry x="425.5" y="300" width="50" height="50" as="geometry" />
        </mxCell>
        <mxCell id="mrZXV3vkeE_eTy5VasnF-42" style="edgeStyle=orthogonalEdgeStyle;rounded=0;orthogonalLoop=1;jettySize=auto;html=1;entryX=0.5;entryY=1;entryDx=0;entryDy=0;entryPerimeter=0;" parent="1" source="mrZXV3vkeE_eTy5VasnF-13" target="mrZXV3vkeE_eTy5VasnF-8" edge="1">
          <mxGeometry relative="1" as="geometry" />
        </mxCell>
        <mxCell id="mrZXV3vkeE_eTy5VasnF-44" value="да" style="text;html=1;align=center;verticalAlign=middle;whiteSpace=wrap;rounded=0;" parent="1" vertex="1">
          <mxGeometry x="109.49" y="850" width="60" height="30" as="geometry" />
        </mxCell>
        <mxCell id="mrZXV3vkeE_eTy5VasnF-45" value="да" style="text;html=1;align=center;verticalAlign=middle;whiteSpace=wrap;rounded=0;" parent="1" vertex="1">
          <mxGeometry x="109.49" y="960" width="60" height="30" as="geometry" />
        </mxCell>
        <mxCell id="8NwUXc0eA_0OBcahtsty-2" value="" style="edgeStyle=orthogonalEdgeStyle;rounded=0;orthogonalLoop=1;jettySize=auto;html=1;" edge="1" parent="1" source="mrZXV3vkeE_eTy5VasnF-48" target="mrZXV3vkeE_eTy5VasnF-2">
          <mxGeometry relative="1" as="geometry" />
        </mxCell>
        <mxCell id="mrZXV3vkeE_eTy5VasnF-48" value="Цикл до конц&lt;span style=&quot;color: rgba(0, 0, 0, 0); font-family: monospace; font-size: 0px; text-align: start; text-wrap: nowrap;&quot;&gt;%3CmxGraphModel%3E%3Croot%3E%3CmxCell%20id%3D%220%22%2F%3E%3CmxCell%20id%3D%221%22%20parent%3D%220%22%2F%3E%3CmxCell%20id%3D%222%22%20value%3D%22%D0%A6%D0%B8%D0%BA%D0%BB%20%D0%BF%D0%BE%20%D0%BC%D0%B0%D1%81%D1%81%D0%B8%D0%B2%D0%B5%20%D0%BF%D0%BE%D0%B5%D0%B7%D0%B4%D0%BE%D0%B2%22%20style%3D%22strokeWidth%3D2%3Bhtml%3D1%3Bshape%3Dmxgraph.flowchart.loop_limit%3BwhiteSpace%3Dwrap%3B%22%20vertex%3D%221%22%20parent%3D%221%22%3E%3CmxGeometry%20x%3D%2251.49%22%20y%3D%22420%22%20width%3D%22156%22%20height%3D%2260%22%20as%3D%22geometry%22%2F%3E%3C%2FmxCell%3E%3C%2Froot%3E%3C%2FmxGraphModel%3E&lt;/span&gt;а программы" style="strokeWidth=2;html=1;shape=mxgraph.flowchart.loop_limit;whiteSpace=wrap;" parent="1" vertex="1">
          <mxGeometry x="51.49" y="300" width="156" height="60" as="geometry" />
        </mxCell>
        <mxCell id="mrZXV3vkeE_eTy5VasnF-52" style="edgeStyle=orthogonalEdgeStyle;rounded=0;orthogonalLoop=1;jettySize=auto;html=1;entryX=0.5;entryY=0;entryDx=0;entryDy=0;entryPerimeter=0;" parent="1" source="mrZXV3vkeE_eTy5VasnF-49" target="uBKHjGsXj6OErML4Wmsb-4" edge="1">
          <mxGeometry relative="1" as="geometry">
            <mxPoint x="450" y="750" as="targetPoint" />
          </mxGeometry>
        </mxCell>
        <mxCell id="mrZXV3vkeE_eTy5VasnF-49" value="Цикл до конц&lt;span style=&quot;color: rgba(0, 0, 0, 0); font-family: monospace; font-size: 0px; text-align: start; text-wrap: nowrap;&quot;&gt;%3CmxGraphModel%3E%3Croot%3E%3CmxCell%20id%3D%220%22%2F%3E%3CmxCell%20id%3D%221%22%20parent%3D%220%22%2F%3E%3CmxCell%20id%3D%222%22%20value%3D%22%D0%A6%D0%B8%D0%BA%D0%BB%20%D0%BF%D0%BE%20%D0%BC%D0%B0%D1%81%D1%81%D0%B8%D0%B2%D0%B5%20%D0%BF%D0%BE%D0%B5%D0%B7%D0%B4%D0%BE%D0%B2%22%20style%3D%22strokeWidth%3D2%3Bhtml%3D1%3Bshape%3Dmxgraph.flowchart.loop_limit%3BwhiteSpace%3Dwrap%3B%22%20vertex%3D%221%22%20parent%3D%221%22%3E%3CmxGeometry%20x%3D%2251.49%22%20y%3D%22420%22%20width%3D%22156%22%20height%3D%2260%22%20as%3D%22geometry%22%2F%3E%3C%2FmxCell%3E%3C%2Froot%3E%3C%2FmxGraphModel%3E&lt;/span&gt;а программы" style="strokeWidth=2;html=1;shape=mxgraph.flowchart.loop_limit;whiteSpace=wrap;direction=west;" parent="1" vertex="1">
          <mxGeometry x="370" y="670" width="160" height="60" as="geometry" />
        </mxCell>
        <mxCell id="mrZXV3vkeE_eTy5VasnF-51" style="edgeStyle=orthogonalEdgeStyle;rounded=0;orthogonalLoop=1;jettySize=auto;html=1;entryX=0.5;entryY=1;entryDx=0;entryDy=0;entryPerimeter=0;" parent="1" source="mrZXV3vkeE_eTy5VasnF-8" target="mrZXV3vkeE_eTy5VasnF-49" edge="1">
          <mxGeometry relative="1" as="geometry" />
        </mxCell>
        <mxCell id="8NwUXc0eA_0OBcahtsty-1" style="edgeStyle=orthogonalEdgeStyle;rounded=0;orthogonalLoop=1;jettySize=auto;html=1;entryX=0.5;entryY=0;entryDx=0;entryDy=0;entryPerimeter=0;" edge="1" parent="1" source="mrZXV3vkeE_eTy5VasnF-1" target="mrZXV3vkeE_eTy5VasnF-48">
          <mxGeometry relative="1" as="geometry" />
        </mxCell>
      </root>
    </mxGraphModel>
  </diagram>
</mxfile>
